# xmcd
#
# Track frame offsets:
#	150
#	12535
#	31577
#	42100
#	69090
#	83542
#	94777
#	113622
#	123647
#	137850
#	151545
#	171967
#	185707
#	211785
#	222200
#	232195
#	244122
#	262035
#	291067
#	302937
#	315315
#
# Disc length: 4367 seconds
# Revision: 0
# Processed by: cddbd v1.5.2PL0 Copyright (c) Steve Scherf et al.
# Submitted via: dBpowerAMP V12.0
#
DISCID=1b110d15
DTITLE=Various Artist - SRV Classics
DYEAR=1996
DGENRE=Blues
TTITLE0=Johnny "Guitar" Watson - Too Tired
TTITLE1=U. P. Wilson - Mean Old World
TTITLE2=Albert Collins - Freeze
TTITLE3=Albert Collins with Jimmie Vaughan - Cold Cold Feeling
TTITLE4=The Parliament - (I Wanna) Testify
TTITLE5=Hank Ballard and The Midnighters - Look At Little Sister
TTITLE6=Albert King - The Sky Is Crying
TTITLE7=Lonnie Mack - Wham!
TTITLE8=Jimmy Wilson - Tin Pan Alley
TTITLE9=Doyle Bramhall - Change It
TTITLE10=Earl King - Come On Pt.1 and 2
TTITLE11=Guitar Slim - The Things That I Used To Do
TTITLE12=Calvin Jones with Hubert Sumlin - Shake For Me
TTITLE13=Sly Williams - Boot Hill
TTITLE14=Jr. Wells - Chitlin' Con Carne
TTITLE15=Otis Rush - All Your Love (I Miss Loving)
TTITLE16=Lightnin' Hopkins - Black Mare Trot (Rude Mood)
TTITLE17=Buddy Guy - The Things That I Used To Do
TTITLE18=Freddy King - Hide Away
TTITLE19=Doyle Bramhall - Too Sorry
TTITLE20=Otis Rush - Double Trouble
EXTD=
EXTT0=
EXTT1=
EXTT2=
EXTT3=
EXTT4=
EXTT5=
EXTT6=
EXTT7=
EXTT8=
EXTT9=
EXTT10=
EXTT11=
EXTT12=
EXTT13=
EXTT14=
EXTT15=
EXTT16=
EXTT17=
EXTT18=
EXTT19=
EXTT20=
PLAYORDER=
